<?xml version="1.0" encoding="UTF-8" standalone="no"?>
<svg width="44px" height="44px" viewBox="0 0 44 44" version="1.1" xmlns="http://www.w3.org/2000/svg" xmlns:xlink="http://www.w3.org/1999/xlink">
    <!-- Generator: Sketch 3.7.2 (28276) - http://www.bohemiancoding.com/sketch -->
    <title>Facebook</title>
    <desc>Created with Sketch.</desc>
    <defs></defs>
    <g id="Page-1" stroke="none" stroke-width="1" fill="none" fill-rule="evenodd">
        <g id="Desktop-HD" transform="translate(-2653.000000, -247.000000)" fill="#FFFFFF">
            <path d="M2655.42846,291 C2654.08687,291 2653,289.912459 2653,288.571386 L2653,249.428443 C2653,248.087029 2654.08704,247 2655.42846,247 L2694.57171,247 C2695.91279,247 2697,248.087029 2697,249.428443 L2697,288.571386 C2697,289.91263 2695.91262,291 2694.57171,291 L2683.35936,291 L2683.35936,273.960775 L2689.07864,273.960775 L2689.93503,267.320287 L2683.35936,267.320287 L2683.35936,263.080755 C2683.35936,261.15818 2683.89324,259.848009 2686.65018,259.848009 L2690.16654,259.846472 L2690.16654,253.907166 C2689.5584,253.826241 2687.47105,253.645439 2685.04259,253.645439 C2679.97276,253.645439 2676.50183,256.740066 2676.50183,262.423108 L2676.50183,267.320287 L2670.76786,267.320287 L2670.76786,273.960775 L2676.50183,273.960775 L2676.50183,291 L2655.42846,291 Z" id="Facebook"></path>
        </g>
    </g>
</svg>