<?xml version="1.0" encoding="UTF-8" standalone="no"?>
<svg width="44px" height="40px" viewBox="0 0 44 40" version="1.1" xmlns="http://www.w3.org/2000/svg" xmlns:xlink="http://www.w3.org/1999/xlink">
    <!-- Generator: Sketch 3.7.2 (28276) - http://www.bohemiancoding.com/sketch -->
    <title>LinkedIn</title>
    <desc>Created with Sketch.</desc>
    <defs></defs>
    <g id="Page-1" stroke="none" stroke-width="1" fill="none" fill-rule="evenodd">
        <g id="Desktop-HD" transform="translate(-2776.000000, -207.000000)" fill="#FFFFFF">
            <path d="M2820,247 L2810.2754,247 L2810.2754,232.9384 C2810.2754,229.257796 2808.75423,226.745149 2805.40922,226.745149 C2802.85066,226.745149 2801.4278,228.440738 2800.76552,230.074854 C2800.51717,230.661395 2800.55597,231.478453 2800.55597,232.295511 L2800.55597,247 L2790.92192,247 C2790.92192,247 2791.0461,222.091247 2790.92192,219.827047 L2800.55597,219.827047 L2800.55597,224.091631 C2801.12512,222.226996 2804.20367,219.565794 2809.11642,219.565794 C2815.21143,219.565794 2820,223.474355 2820,231.890824 L2820,247 L2820,247 L2820,247 Z M2781.17921,216.428187 L2781.11712,216.428187 C2778.0127,216.428187 2776,214.350964 2776,211.717936 C2776,209.033681 2778.0722,207 2781.23871,207 C2784.40263,207 2786.34807,209.028559 2786.41016,211.710252 C2786.41016,214.34328 2784.40263,216.428187 2781.17921,216.428187 L2781.17921,216.428187 L2781.17921,216.428187 L2781.17921,216.428187 Z M2777.10983,219.827047 L2785.68579,219.827047 L2785.68579,247 L2777.10983,247 L2777.10983,219.827047 L2777.10983,219.827047 L2777.10983,219.827047 Z" id="LinkedIn"></path>
        </g>
    </g>
</svg>