<?xml version="1.0" encoding="UTF-8" standalone="no"?>
<svg width="44px" height="37px" viewBox="0 0 44 37" version="1.1" xmlns="http://www.w3.org/2000/svg" xmlns:xlink="http://www.w3.org/1999/xlink">
    <!-- Generator: Sketch 3.7.2 (28276) - http://www.bohemiancoding.com/sketch -->
    <title>Twitter</title>
    <desc>Created with Sketch.</desc>
    <defs></defs>
    <g id="Page-1" stroke="none" stroke-width="1" fill="none" fill-rule="evenodd">
        <g id="Desktop-HD" transform="translate(-2617.000000, -368.000000)" fill="#FFFFFF">
            <path d="M2661,372.340677 C2659.38328,373.076923 2657.6426,373.574816 2655.81669,373.797279 C2657.68134,372.653184 2659.11211,370.839051 2659.78617,368.677982 C2658.04032,369.73733 2656.11111,370.508005 2654.05019,370.921151 C2652.40764,369.122908 2650.06005,368 2647.46194,368 C2642.48007,368 2638.43828,372.144697 2638.43828,377.256049 C2638.43828,377.981702 2638.51576,378.686168 2638.67072,379.364151 C2631.16822,378.977489 2624.51799,375.296256 2620.06298,369.689659 C2619.28561,371.061514 2618.8414,372.653184 2618.8414,374.34814 C2618.8414,377.557963 2620.43488,380.391718 2622.85737,382.052245 C2621.38011,382.007223 2619.9855,381.586132 2618.76651,380.897556 L2618.76651,381.011436 C2618.76651,385.497773 2621.87856,389.239918 2626.01074,390.087396 C2625.25404,390.304562 2624.45601,390.413146 2623.63215,390.413146 C2623.05107,390.413146 2622.48289,390.35753 2621.93279,390.248947 C2623.08206,393.924883 2626.41363,396.602384 2630.36503,396.673889 C2627.27622,399.158059 2623.38164,400.638498 2619.1539,400.638498 C2618.4256,400.638498 2617.70505,400.596124 2617,400.511376 C2620.9953,403.133261 2625.74215,404.666667 2630.83765,404.666667 C2647.44386,404.666667 2656.52175,390.564103 2656.52175,378.331287 C2656.52175,377.928735 2656.514,377.526183 2656.4985,377.131576 C2658.26243,375.82593 2659.79392,374.197183 2661,372.340677" id="Twitter"></path>
        </g>
    </g>
</svg>